<svg width="483" height="483" viewBox="0 0 483 483" fill="none" xmlns="http://www.w3.org/2000/svg">
<g clip-path="url(#clip0_68_21)">
<path d="M86.4266 286.095C56.3202 124.937 207.295 90.846 207.295 90.846L167.006 72.6936L178.517 60.7395C-0.793545 135.563 51.0073 307.347 51.0073 307.347L24 324.171L109.892 381.285L102.808 277.683L86.4266 286.095Z" fill="#E33A0B"/>
<path d="M290.011 94.7101C444.576 149.374 398.461 297.121 398.461 297.121L434.353 271.342L438.933 287.293C463.986 94.6192 289.359 53.4095 289.359 53.4095L288.325 21.6074L195.87 67.3406L289.087 113.102L290.011 94.7101Z" fill="#E33A0B"/>
<path d="M353.093 367.526C228.579 474.178 123.568 360.476 123.568 360.476L127.992 404.444L111.884 400.452C266.338 518.327 389.207 387.575 389.207 387.575L417.281 402.552L423.797 299.61L337.617 357.546L353.093 367.526Z" fill="#E33A0B"/>
<path d="M245.836 147H194.062V175.401H224.518L234.524 201.617L153.165 333.135H189.711L246.707 241.378L287.169 341L344.165 323.523L335.463 295.122L308.488 303.86L245.836 147Z" fill="#E33A0B"/>
</g>
<defs>
<clipPath id="clip0_68_21">
<rect width="483" height="483" fill="white"/>
</clipPath>
</defs>
</svg>
